<svg width="133" height="133" viewBox="0 0 133 133" fill="none" xmlns="http://www.w3.org/2000/svg">
<path d="M126.239 52.9234L115.377 42.0617L99.0849 58.3542V14.9076H74.6462L80.077 4.0459H25.7687L31.1995 14.9076H6.76074V128.955H99.0849V80.0776L126.239 52.9234Z" fill="white"/>
<path d="M72.4739 96.3703H82.7925L126.239 52.9236L121.351 48.0359L72.4739 96.3703ZM29.5703 12.1924L33.3719 20.3386H71.3877L75.7324 12.1924H29.5703ZM71.9308 23.054H33.915V28.4849H71.9308V23.054Z" fill="#99AD7A"/>
<path d="M74.6462 14.9072H99.0849V36.6306M99.0849 96.3697V128.955H6.76074V14.9072H31.1995M23.0532 96.3697H55.6382M23.0532 74.6464H55.6382M23.0532 52.9231H77.3616" stroke="#546B41" stroke-miterlimit="10" stroke-linecap="round" stroke-linejoin="round"/>
<path d="M71.9306 85.5084V96.3701H82.7923L126.239 52.9234L115.377 42.0617L71.9306 85.5084ZM80.0769 4.0459L71.3876 20.3384H33.3717L25.7686 4.0459H80.0769Z" stroke="#546B41" stroke-miterlimit="10" stroke-linecap="round" stroke-linejoin="round"/>
</svg>
